<svg width="24" height="24" viewBox="0 0 24 24" fill="none" xmlns="http://www.w3.org/2000/svg">
<path fill-rule="evenodd" clip-rule="evenodd" d="M18.3562 2.43761C18.8879 2.17412 19.5121 2.17413 20.0438 2.43766C20.3294 2.57923 20.57 2.8214 20.7781 3.03087L20.895 3.14778C21.1044 3.35587 21.3465 3.59646 21.488 3.88205C21.7515 4.41367 21.7515 5.03784 21.488 5.56945C21.3464 5.85504 21.1043 6.09562 20.8949 6.3037L11.0728 16.1257H7.8V12.853L17.6219 3.03078C17.83 2.82132 18.0706 2.57916 18.3562 2.43761ZM19.2707 4.0691C19.2317 4.03004 19.1684 4.03004 19.1293 4.0691L9.60005 13.5983V14.3256H10.3272L19.8564 4.79622C19.8954 4.75717 19.8954 4.69386 19.8564 4.65481L19.2707 4.0691Z" fill="#F5F6F8"/>
<path fill-rule="evenodd" clip-rule="evenodd" d="M7.16325 2.82594C6.49445 2.82593 5.93846 2.82592 5.48472 2.86299C5.01218 2.9016 4.57184 2.98486 4.15643 3.19652C3.51668 3.52249 2.99655 4.04262 2.67058 4.68237C2.45892 5.09778 2.37566 5.53812 2.33705 6.01066C2.29998 6.4644 2.29999 7.02039 2.3 7.68919V16.7627C2.29999 17.4315 2.29998 17.9875 2.33705 18.4412C2.37566 18.9138 2.45892 19.3541 2.67058 19.7695C2.99655 20.4093 3.51668 20.9294 4.15643 21.2554C4.57184 21.467 5.01218 21.5503 5.48472 21.5889C5.93846 21.626 6.49444 21.626 7.16324 21.6259H16.2368C16.9056 21.626 17.4616 21.626 17.9154 21.5889C18.3879 21.5503 18.8283 21.467 19.2437 21.2554C19.8834 20.9294 20.4036 20.4092 20.7295 19.7695C20.9412 19.3541 21.0244 18.9137 21.063 18.4412C21.1001 17.9874 21.1001 17.4314 21.1001 16.7626L21.1 11.2259L19.3 11.226L19.3001 16.7259C19.3001 17.4408 19.2994 17.9229 19.269 18.2946C19.2395 18.6559 19.1865 18.8329 19.1257 18.9523C18.9723 19.2534 18.7275 19.4982 18.4265 19.6516C18.3071 19.7124 18.13 19.7654 17.7688 19.7949C17.3971 19.8252 16.915 19.8259 16.2001 19.8259H7.2C6.48508 19.8259 6.00302 19.8252 5.63129 19.7949C5.27007 19.7654 5.09298 19.7124 4.97362 19.6516C4.67256 19.4982 4.42779 19.2534 4.27439 18.9523C4.21357 18.833 4.16058 18.6559 4.13107 18.2946C4.1007 17.9229 4.1 17.4409 4.1 16.7259V7.72594C4.1 7.01102 4.1007 6.52896 4.13107 6.15723C4.16058 5.79601 4.21357 5.61892 4.27439 5.49956C4.42779 5.1985 4.67256 4.95373 4.97362 4.80033C5.09298 4.73951 5.27007 4.68653 5.63129 4.65701C6.00302 4.62664 6.48508 4.62594 7.2 4.62594H12.7V2.82594L7.16325 2.82594Z" fill="#F5F6F8"/>
</svg>
