<svg width="66" height="16" viewBox="0 0 66 16" fill="none" xmlns="http://www.w3.org/2000/svg">
<path d="M65.8434 7.717C65.8434 12.6127 62.7939 15.434 58.8317 15.434C54.828 15.434 51.7993 12.592 51.7993 7.717C51.7993 2.82127 54.828 0 58.8317 0C62.7939 0 65.8434 2.82127 65.8434 7.717ZM62.6695 7.717C62.6695 4.50158 61.1551 2.75903 58.8317 2.75903C56.5083 2.75903 54.9732 4.50158 54.9732 7.717C54.9732 10.9324 56.5083 12.675 58.8317 12.675C61.1551 12.675 62.6695 10.9324 62.6695 7.717Z" fill="#2E2E32"/>
<path d="M33.3366 0.207456H37.1951L41.3648 10.3931H41.5307L45.7004 0.207456H49.5589V15.2266H46.5302V5.39361H46.4057L42.485 15.1643H40.4105L36.4898 5.35212H36.3653V15.2266H33.3366V0.207456Z" fill="#2E2E32"/>
<path d="M30.8058 0.207456V15.2266H27.6941V0.207456H30.8058Z" fill="#2E2E32"/>
<path d="M16.0979 15.2266V0.207456H19.2095V12.6542H25.6819V15.2266H16.0979Z" fill="#2E2E32"/>
<path d="M3.36063 15.2266H0L5.2069 0.207456H9.21061L14.3968 15.2266H11.0569L9.93667 11.7622H4.50158L3.36063 15.2266ZM5.28988 9.33509H9.14837L7.26061 3.58883H7.15689L5.28988 9.33509Z" fill="#2E2E32"/>
</svg>
