<svg width="24" height="24" viewBox="0 0 24 24" fill="none" xmlns="http://www.w3.org/2000/svg">
<path d="M9.3948 3.29999C9.3948 2.80294 9.79774 2.39999 10.2948 2.39999H13.7922C14.2893 2.39999 14.6922 2.80294 14.6922 3.29999C14.6922 3.79705 14.2893 4.19999 13.7922 4.19999H10.2948C9.79774 4.19999 9.3948 3.79705 9.3948 3.29999Z" fill="#F5F6F8"/>
<path d="M7.69699 3.28569C7.71204 3.78252 7.32149 4.19748 6.82466 4.21253C5.96786 4.2385 5.61094 4.30638 5.35669 4.43714L5.34759 4.44182C4.96172 4.63476 4.64071 4.9568 4.42291 5.37213C4.29299 5.62623 4.22547 5.98362 4.19959 6.83762C4.18453 7.33444 3.76957 7.725 3.27275 7.70994C2.77592 7.69489 2.38537 7.27992 2.40042 6.7831C2.42627 5.93005 2.48792 5.19889 2.82348 4.54641L2.82622 4.54109C3.20351 3.81931 3.78713 3.21078 4.53813 2.83403C5.18943 2.50057 5.91913 2.43915 6.77014 2.41336C7.26697 2.3983 7.68193 2.78886 7.69699 3.28569Z" fill="#F5F6F8"/>
<path d="M16.39 3.28569C16.4051 2.78886 16.82 2.3983 17.3169 2.41336C18.1679 2.43915 18.8976 2.50057 19.5489 2.83403C20.2999 3.21078 20.8835 3.81932 21.2608 4.5411L21.2635 4.5464C21.5991 5.19888 21.6607 5.93005 21.6866 6.7831C21.7016 7.27992 21.3111 7.69489 20.8142 7.70994C20.3174 7.725 19.9025 7.33444 19.8874 6.83762C19.8615 5.98362 19.794 5.62624 19.6641 5.37214C19.4463 4.95681 19.1253 4.6347 18.7394 4.44177L18.7303 4.43719C18.476 4.30643 18.1191 4.2385 17.2623 4.21253C16.7655 4.19748 16.375 3.78252 16.39 3.28569Z" fill="#F5F6F8"/>
<path d="M3.30001 9.39481C3.79706 9.39481 4.2 9.79776 4.2 10.2948V13.7922C4.2 14.2893 3.79706 14.6922 3.30001 14.6922C2.80295 14.6922 2.40001 14.2893 2.40001 13.7922V10.2948C2.40001 9.79776 2.80295 9.39481 3.30001 9.39481Z" fill="#F5F6F8"/>
<path d="M20.787 9.39481C21.284 9.39481 21.687 9.79776 21.687 10.2948V13.7922C21.687 14.2893 21.284 14.6922 20.787 14.6922C20.2899 14.6922 19.887 14.2893 19.887 13.7922V10.2948C19.887 9.79776 20.2899 9.39481 20.787 9.39481Z" fill="#F5F6F8"/>
<path d="M20.8272 16.39C21.324 16.4051 21.7146 16.8201 21.6995 17.3169C21.6737 18.1699 21.612 18.9011 21.2765 19.5536L21.2737 19.5589C20.8964 20.2807 20.3127 20.8893 19.5616 21.266C18.9104 21.5994 18.1807 21.6608 17.3298 21.6866C16.833 21.7017 16.418 21.3111 16.403 20.8143C16.3879 20.3175 16.7785 19.9025 17.2753 19.8875C18.1321 19.8615 18.489 19.7936 18.7433 19.6628L18.7523 19.6582C19.1382 19.4652 19.4592 19.1432 19.677 18.7278C19.807 18.4737 19.8745 18.1164 19.9004 17.2624C19.9154 16.7655 20.3304 16.375 20.8272 16.39Z" fill="#F5F6F8"/>
<path d="M3.27275 16.403C3.76957 16.3879 4.18453 16.7785 4.19959 17.2753C4.22555 18.1321 4.29344 18.489 4.4242 18.7433L4.42887 18.7524C4.62181 19.1383 4.94386 19.4593 5.35919 19.6771C5.61329 19.807 5.97066 19.8745 6.82466 19.9004C7.32149 19.9155 7.71204 20.3304 7.69699 20.8273C7.68193 21.3241 7.26697 21.7146 6.77014 21.6996C5.9171 21.6737 5.18595 21.6121 4.53347 21.2765L4.52815 21.2738C3.80638 20.8965 3.19784 20.3129 2.82109 19.5619C2.48763 18.9106 2.42621 18.1809 2.40042 17.3298C2.38537 16.833 2.77592 16.4181 3.27275 16.403Z" fill="#F5F6F8"/>
<path d="M9.3948 20.787C9.3948 20.29 9.79774 19.887 10.2948 19.887H13.7922C14.2893 19.887 14.6922 20.29 14.6922 20.787C14.6922 21.2841 14.2893 21.687 13.7922 21.687H10.2948C9.79774 21.687 9.3948 21.2841 9.3948 20.787Z" fill="#F5F6F8"/>
</svg>
