<svg width="24" height="24" viewBox="0 0 24 24" fill="none" xmlns="http://www.w3.org/2000/svg">
<path fill-rule="evenodd" clip-rule="evenodd" d="M13.626 4.21493C13.9216 4.50517 13.9258 4.98003 13.6356 5.27554L6.64868 12.3892C5.86779 13.1842 5.45313 14.2685 5.50422 15.3817L5.51008 15.5094C5.60159 17.5033 7.19527 19.1002 9.189 19.1956C10.2901 19.2484 11.3613 18.8288 12.1337 18.0423L18.4699 11.5905C18.9223 11.1298 19.155 10.4971 19.1088 9.85315L19.097 9.68779C19.0172 8.57453 18.1334 7.688 17.0204 7.60482L16.9802 7.60181C16.3191 7.5524 15.6698 7.79707 15.2057 8.27052L9.79281 13.7926C9.67253 13.9153 9.59877 14.076 9.58419 14.2472L9.58023 14.2937C9.54335 14.727 9.90635 15.0887 10.3395 15.0502C10.5054 15.0355 10.6606 14.9621 10.7772 14.8432L14.621 10.9248C14.9111 10.6291 15.386 10.6245 15.6817 10.9146C15.9774 11.2047 15.9819 11.6795 15.6918 11.9752L11.848 15.8936C11.4814 16.2673 10.9936 16.498 10.4722 16.5443C9.11072 16.6653 7.9697 15.5284 8.08564 14.1665L8.0896 14.12C8.13375 13.6013 8.35723 13.1143 8.72162 12.7425L14.1345 7.2205C14.908 6.43142 15.9901 6.02363 17.092 6.10598L17.1322 6.10899C18.9872 6.24763 20.4602 7.72518 20.5931 9.58061L20.605 9.74597C20.6819 10.8192 20.294 11.8738 19.5401 12.6415L13.2039 19.0933C12.132 20.1848 10.6453 20.7671 9.11726 20.6939C6.35036 20.5614 4.13865 18.3453 4.01166 15.5782L4.0058 15.4505C3.93559 13.9207 4.50542 12.4307 5.57853 11.3381L12.5654 4.22446C12.8557 3.92894 13.3305 3.92468 13.626 4.21493Z" fill="#F5F6F8"/>
</svg>
