<svg width="24" height="24" viewBox="0 0 24 24" fill="none" xmlns="http://www.w3.org/2000/svg">
<path fill-rule="evenodd" clip-rule="evenodd" d="M10.1311 7.57767C9.60154 7.65102 9.35627 7.78035 9.18934 7.95234C9.02241 8.12432 8.89688 8.37702 8.82569 8.92261C8.75159 9.49042 8.75 10.2487 8.75 11.3633V15.227C8.75 16.3416 8.75159 17.0998 8.82569 17.6676C8.89688 18.2132 9.02241 18.4659 9.18935 18.6379C9.35628 18.8099 9.60154 18.9393 10.1311 19.0126C10.6822 19.089 11.4181 19.0906 12.5 19.0906H14.75C15.8319 19.0906 16.5678 19.089 17.1189 19.0126C17.6484 18.9393 17.8937 18.8099 18.0606 18.6379C18.2276 18.4659 18.3531 18.2132 18.4243 17.6676C18.4984 17.0998 18.5 16.3416 18.5 15.227V11.3633C18.5 10.2487 18.4984 9.49042 18.4243 8.92261C18.3531 8.37703 18.2276 8.12433 18.0606 7.95234C17.8937 7.78035 17.6484 7.65102 17.1189 7.57767C16.5678 7.50133 15.8319 7.49968 14.75 7.49968H12.5C11.4181 7.49968 10.6822 7.50133 10.1311 7.57767ZM12.4471 5.95423H14.8029C15.8185 5.9542 16.656 5.95418 17.3188 6.04599C18.0146 6.14239 18.6292 6.35254 19.1213 6.85953C19.6134 7.36652 19.8174 7.99971 19.9109 8.71668C20 9.39958 20 10.2624 20 11.3088V15.2815C20 16.3278 20 17.1907 19.9109 17.8736C19.8174 18.5905 19.6134 19.2237 19.1213 19.7307C18.6292 20.2377 18.0147 20.4479 17.3188 20.5443C16.656 20.6361 15.8185 20.6361 14.8029 20.636H12.4471C11.4315 20.6361 10.594 20.6361 9.9312 20.5443C9.23532 20.4479 8.62076 20.2377 8.12867 19.7307C7.6366 19.2237 7.43262 18.5905 7.33907 17.8736C7.24995 17.1907 7.24997 16.3278 7.25 15.2815V11.3088C7.24997 10.2624 7.24995 9.39958 7.33907 8.71668C7.43262 7.99972 7.6366 7.36653 8.12868 6.85954C8.62076 6.35254 9.23533 6.14239 9.9312 6.04599C10.594 5.95418 11.4315 5.9542 12.4471 5.95423Z" fill="#F5F6F8"/>
<path fill-rule="evenodd" clip-rule="evenodd" d="M8.55812 5.28778C7.82435 5.38942 7.43578 5.57533 7.15901 5.86048ZM7.15901 5.86048C6.88225 6.14563 6.7018 6.54598 6.60315 7.30199C6.50159 8.08023 6.5 9.11168 6.5 10.5906V15.227C6.5 16.0805 7.17157 16.7724 8 16.7724V18.3179C6.34316 18.3179 5 16.9341 5 15.227L5 10.5341C4.99998 9.12502 4.99996 7.9893 5.11652 7.09606C5.23754 6.16868 5.49643 5.38784 6.09835 4.76768C6.70026 4.14753 7.45814 3.88079 8.35825 3.7561C9.22522 3.63601 10.3275 3.63603 11.6951 3.63605L14.75 3.63605C16.4069 3.63605 17.75 5.01991 17.75 6.72696H16.25C16.25 5.87342 15.5785 5.1815 14.75 5.1815H11.75C10.3146 5.1815 9.31347 5.18314 8.55812 5.28778" fill="#F5F6F8"/>
</svg>
