<svg width="24" height="24" viewBox="0 0 24 24" fill="none" xmlns="http://www.w3.org/2000/svg">
<path fill-rule="evenodd" clip-rule="evenodd" d="M11.5917 3.15572C11.2285 3.06014 10.8424 3.17612 10.592 3.456L3.00952 11.9305C2.6814 12.2973 2.5 12.7721 2.5 13.2641V14.135C2.5 15.3456 2.89264 16.5235 3.619 17.492L-nan -nanL3.619 17.492C3.86604 17.8214 4.21513 18.0598 4.61184 18.17L11.7553 20.1542C12.5129 20.3647 13.3236 20.1117 13.827 19.5076L19.8877 12.2347C20.2749 11.7701 20.431 11.1552 20.3124 10.5621L20.099 9.49515C20.0872 9.43593 20 9.44456 20 9.50495V9.7759C20 10.2438 19.836 10.6968 19.5364 11.0563L13.3563 18.4724C12.838 19.0943 11.996 19.3425 11.2233 19.101L5.38636 17.277C4.82427 17.1013 4.36816 16.6869 4.13964 16.1441L3.93509 15.6583C3.77993 15.2898 3.7 14.894 3.7 14.4942V14.3908C3.7 13.7371 4.31692 13.2592 4.94988 13.4226L12.3871 15.3418C12.7614 15.4384 13.1578 15.3107 13.4052 15.0137L20.2954 6.7455C20.4276 6.58687 20.5 6.38692 20.5 6.18043L-nan -nanL20.5 6.18043C20.5 5.77947 20.2297 5.42888 19.842 5.32684L11.5917 3.15572Z" fill="#F5F6F8"/>
<path fill-rule="evenodd" clip-rule="evenodd" d="M11.4645 3.63926C11.2829 3.59147 11.0898 3.64946 10.9646 3.7894L3.38214 12.2639C3.13605 12.539 3 12.8951 3 13.2641V14.135C3 15.2374 3.35756 16.3101 4.019 17.192C4.19981 17.4331 4.45531 17.6075 4.74566 17.6882L7.26801 18.3889L5.23722 17.7542C4.53461 17.5347 3.96448 17.0166 3.67882 16.3382L3.47428 15.8524C3.29325 15.4224 3.2 14.9607 3.2 14.4942V14.3908C3.2 13.4103 4.12537 12.6934 5.07482 12.9384L12.5121 14.8577C12.6992 14.906 12.8974 14.8421 13.0211 14.6937L19.9113 6.42541C19.9686 6.35664 20 6.26995 20 6.18043C20 6.0066 19.8828 5.85461 19.7147 5.81037L11.4645 3.63926ZM11.9526 19.6886C12.5022 19.8159 13.0794 19.6237 13.4429 19.1875L19.5036 11.9147C19.5618 11.8448 19.6131 11.7704 19.6571 11.6925L13.7404 18.7925C13.2867 19.337 12.6345 19.6523 11.9526 19.6886ZM10.2194 3.1226C10.595 2.70278 11.1742 2.52882 11.719 2.67218L19.9692 4.8433C20.5766 5.00315 21 5.55233 21 6.18043C21 6.50389 20.8866 6.81711 20.6795 7.06559L13.7893 15.3338C13.4182 15.7792 12.8236 15.9708 12.2622 15.826L4.82494 13.9067C4.50846 13.825 4.2 14.064 4.2 14.3908V14.4942C4.2 14.8274 4.26661 15.1572 4.39591 15.4643L4.60046 15.9501C4.77185 16.3572 5.11393 16.668 5.5355 16.7997L11.3724 18.6238C11.952 18.8049 12.5835 18.6188 12.9722 18.1524L19.1523 10.7362C19.377 10.4666 19.5 10.1268 19.5 9.7759V9.50495C19.5 8.8406 20.459 8.74573 20.5893 9.39709L20.8027 10.4641C20.951 11.2054 20.7558 11.974 20.2718 12.5548L14.2111 19.8277C13.5819 20.5828 12.5685 20.8991 11.6215 20.636L4.47802 18.6517C3.97495 18.512 3.53227 18.2097 3.219 17.792C2.42773 16.737 2 15.4538 2 14.135V13.2641C2 12.649 2.22676 12.0555 2.6369 11.5971L10.2194 3.1226Z" fill="#F5F6F8"/>
</svg>
